<?xml version="1.0" encoding="UTF-8" standalone="no"?>
<!DOCTYPE svg PUBLIC "-//W3C//DTD SVG 1.1//EN"
 "http://www.w3.org/Graphics/SVG/1.1/DTD/svg11.dtd">
<!-- Generated by graphviz version 2.38.0 (20140413.2041)
 -->
<!-- Title: pipeline Pages: 1 -->
<svg width="1024pt" height="1531pt"
 viewBox="0.00 0.00 1024.00 1531.00" xmlns="http://www.w3.org/2000/svg" xmlns:xlink="http://www.w3.org/1999/xlink">
<g id="graph0" class="graph" transform="scale(1 1) rotate(0) translate(4 1527)">
<title>pipeline</title>
<polygon fill="white" stroke="none" points="-4,4 -4,-1527 1020,-1527 1020,4 -4,4"/>
<text text-anchor="middle" x="508" y="-1511" font-family="sans" font-size="10.00">&lt;GstPipeline&gt;</text>
<text text-anchor="middle" x="508" y="-1500" font-family="sans" font-size="10.00">my_pipeline</text>
<text text-anchor="middle" x="508" y="-1489" font-family="sans" font-size="10.00">[=] &#45;&gt; [&gt;]</text>
<g id="clust1" class="cluster"><title>cluster_unknown_sink_0x17109f0</title>
<path fill="#aaaaff" stroke="black" d="M105,-66C105,-66 262,-66 262,-66 268,-66 274,-72 274,-78 274,-78 274,-168 274,-168 274,-174 268,-180 262,-180 262,-180 105,-180 105,-180 99,-180 93,-174 93,-168 93,-168 93,-78 93,-78 93,-72 99,-66 105,-66"/>
<text text-anchor="middle" x="183.5" y="-169.6" font-family="Bitstream Vera Sans" font-size="8.00">GstFileSink</text>
<text text-anchor="middle" x="183.5" y="-160.6" font-family="Bitstream Vera Sans" font-size="8.00">unknown_sink</text>
<text text-anchor="middle" x="183.5" y="-151.6" font-family="Bitstream Vera Sans" font-size="8.00">[&#45;] &#45;&gt; [=]</text>
<text text-anchor="middle" x="183.5" y="-142.6" font-family="Bitstream Vera Sans" font-size="8.00">parent=(GstPipeline) my_pipeline</text>
<text text-anchor="middle" x="183.5" y="-133.6" font-family="Bitstream Vera Sans" font-size="8.00">sync=FALSE</text>
<text text-anchor="middle" x="183.5" y="-124.6" font-family="Bitstream Vera Sans" font-size="8.00">location=&quot;/home/niaba/Documents/lol&quot;</text>
</g>
<g id="clust2" class="cluster"><title>cluster_unknown_sink_0x17109f0_sink</title>
</g>
<g id="clust3" class="cluster"><title>cluster_typefind3_0x16bf050</title>
<path fill="#aaffaa" stroke="black" d="M410,-188C410,-188 567,-188 567,-188 573,-188 579,-194 579,-200 579,-200 579,-272 579,-272 579,-278 573,-284 567,-284 567,-284 410,-284 410,-284 404,-284 398,-278 398,-272 398,-272 398,-200 398,-200 398,-194 404,-188 410,-188"/>
<text text-anchor="middle" x="488.5" y="-273.6" font-family="Bitstream Vera Sans" font-size="8.00">GstTypeFindElement</text>
<text text-anchor="middle" x="488.5" y="-264.6" font-family="Bitstream Vera Sans" font-size="8.00">typefind3</text>
<text text-anchor="middle" x="488.5" y="-255.6" font-family="Bitstream Vera Sans" font-size="8.00">[&gt;]</text>
<text text-anchor="middle" x="488.5" y="-246.6" font-family="Bitstream Vera Sans" font-size="8.00">parent=(GstPipeline) my_pipeline</text>
</g>
<g id="clust4" class="cluster"><title>cluster_typefind3_0x16bf050_sink</title>
</g>
<g id="clust5" class="cluster"><title>cluster_typefind3_0x16bf050_src</title>
</g>
<g id="clust6" class="cluster"><title>cluster_queue4_0x169a9e0</title>
<path fill="#aaffaa" stroke="black" d="M152,-301C152,-301 472,-301 472,-301 478,-301 484,-307 484,-313 484,-313 484,-385 484,-385 484,-391 478,-397 472,-397 472,-397 152,-397 152,-397 146,-397 140,-391 140,-385 140,-385 140,-313 140,-313 140,-307 146,-301 152,-301"/>
<text text-anchor="middle" x="312" y="-386.6" font-family="Bitstream Vera Sans" font-size="8.00">GstQueue</text>
<text text-anchor="middle" x="312" y="-377.6" font-family="Bitstream Vera Sans" font-size="8.00">queue4</text>
<text text-anchor="middle" x="312" y="-368.6" font-family="Bitstream Vera Sans" font-size="8.00">[&gt;]</text>
<text text-anchor="middle" x="312" y="-359.6" font-family="Bitstream Vera Sans" font-size="8.00">parent=(GstPipeline) my_pipeline</text>
</g>
<g id="clust7" class="cluster"><title>cluster_queue4_0x169a9e0_sink</title>
</g>
<g id="clust8" class="cluster"><title>cluster_queue4_0x169a9e0_src</title>
</g>
<g id="clust9" class="cluster"><title>cluster_queue3_0x169a6f0</title>
<path fill="#aaffaa" stroke="black" d="M152,-405C152,-405 472,-405 472,-405 478,-405 484,-411 484,-417 484,-417 484,-489 484,-489 484,-495 478,-501 472,-501 472,-501 152,-501 152,-501 146,-501 140,-495 140,-489 140,-489 140,-417 140,-417 140,-411 146,-405 152,-405"/>
<text text-anchor="middle" x="312" y="-490.6" font-family="Bitstream Vera Sans" font-size="8.00">GstQueue</text>
<text text-anchor="middle" x="312" y="-481.6" font-family="Bitstream Vera Sans" font-size="8.00">queue3</text>
<text text-anchor="middle" x="312" y="-472.6" font-family="Bitstream Vera Sans" font-size="8.00">[&gt;]</text>
<text text-anchor="middle" x="312" y="-463.6" font-family="Bitstream Vera Sans" font-size="8.00">parent=(GstPipeline) my_pipeline</text>
</g>
<g id="clust10" class="cluster"><title>cluster_queue3_0x169a6f0_sink</title>
</g>
<g id="clust11" class="cluster"><title>cluster_queue3_0x169a6f0_src</title>
</g>
<g id="clust12" class="cluster"><title>cluster_queue2_0x169a400</title>
<path fill="#aaffaa" stroke="black" d="M152,-509C152,-509 472,-509 472,-509 478,-509 484,-515 484,-521 484,-521 484,-593 484,-593 484,-599 478,-605 472,-605 472,-605 152,-605 152,-605 146,-605 140,-599 140,-593 140,-593 140,-521 140,-521 140,-515 146,-509 152,-509"/>
<text text-anchor="middle" x="312" y="-594.6" font-family="Bitstream Vera Sans" font-size="8.00">GstQueue</text>
<text text-anchor="middle" x="312" y="-585.6" font-family="Bitstream Vera Sans" font-size="8.00">queue2</text>
<text text-anchor="middle" x="312" y="-576.6" font-family="Bitstream Vera Sans" font-size="8.00">[&gt;]</text>
<text text-anchor="middle" x="312" y="-567.6" font-family="Bitstream Vera Sans" font-size="8.00">parent=(GstPipeline) my_pipeline</text>
</g>
<g id="clust13" class="cluster"><title>cluster_queue2_0x169a400_sink</title>
</g>
<g id="clust14" class="cluster"><title>cluster_queue2_0x169a400_src</title>
</g>
<g id="clust15" class="cluster"><title>cluster_queue1_0x169a110</title>
<path fill="#aaffaa" stroke="black" d="M152,-613C152,-613 472,-613 472,-613 478,-613 484,-619 484,-625 484,-625 484,-697 484,-697 484,-703 478,-709 472,-709 472,-709 152,-709 152,-709 146,-709 140,-703 140,-697 140,-697 140,-625 140,-625 140,-619 146,-613 152,-613"/>
<text text-anchor="middle" x="312" y="-698.6" font-family="Bitstream Vera Sans" font-size="8.00">GstQueue</text>
<text text-anchor="middle" x="312" y="-689.6" font-family="Bitstream Vera Sans" font-size="8.00">queue1</text>
<text text-anchor="middle" x="312" y="-680.6" font-family="Bitstream Vera Sans" font-size="8.00">[&gt;]</text>
<text text-anchor="middle" x="312" y="-671.6" font-family="Bitstream Vera Sans" font-size="8.00">parent=(GstPipeline) my_pipeline</text>
</g>
<g id="clust16" class="cluster"><title>cluster_queue1_0x169a110_sink</title>
</g>
<g id="clust17" class="cluster"><title>cluster_queue1_0x169a110_src</title>
</g>
<g id="clust18" class="cluster"><title>cluster_identity_0x1698130</title>
<path fill="#aaffaa" stroke="black" d="M152,-717C152,-717 472,-717 472,-717 478,-717 484,-723 484,-729 484,-729 484,-810 484,-810 484,-816 478,-822 472,-822 472,-822 152,-822 152,-822 146,-822 140,-816 140,-810 140,-810 140,-729 140,-729 140,-723 146,-717 152,-717"/>
<text text-anchor="middle" x="312" y="-811.6" font-family="Bitstream Vera Sans" font-size="8.00">GstIdentity</text>
<text text-anchor="middle" x="312" y="-802.6" font-family="Bitstream Vera Sans" font-size="8.00">identity</text>
<text text-anchor="middle" x="312" y="-793.6" font-family="Bitstream Vera Sans" font-size="8.00">[&gt;]</text>
<text text-anchor="middle" x="312" y="-784.6" font-family="Bitstream Vera Sans" font-size="8.00">parent=(GstPipeline) my_pipeline</text>
<text text-anchor="middle" x="312" y="-775.6" font-family="Bitstream Vera Sans" font-size="8.00">sync=TRUE</text>
</g>
<g id="clust19" class="cluster"><title>cluster_identity_0x1698130_sink</title>
</g>
<g id="clust20" class="cluster"><title>cluster_identity_0x1698130_src</title>
</g>
<g id="clust21" class="cluster"><title>cluster_faksrc_0x16920e0</title>
<path fill="#ffaaaa" stroke="black" d="M116,-830C116,-830 250,-830 250,-830 256,-830 262,-836 262,-842 262,-842 262,-959 262,-959 262,-965 256,-971 250,-971 250,-971 116,-971 116,-971 110,-971 104,-965 104,-959 104,-959 104,-842 104,-842 104,-836 110,-830 116,-830"/>
<text text-anchor="middle" x="183" y="-960.6" font-family="Bitstream Vera Sans" font-size="8.00">GstFakeSrc</text>
<text text-anchor="middle" x="183" y="-951.6" font-family="Bitstream Vera Sans" font-size="8.00">faksrc</text>
<text text-anchor="middle" x="183" y="-942.6" font-family="Bitstream Vera Sans" font-size="8.00">[&gt;]</text>
<text text-anchor="middle" x="183" y="-933.6" font-family="Bitstream Vera Sans" font-size="8.00">parent=(GstPipeline) my_pipeline</text>
<text text-anchor="middle" x="183" y="-924.6" font-family="Bitstream Vera Sans" font-size="8.00">blocksize=80</text>
<text text-anchor="middle" x="183" y="-915.6" font-family="Bitstream Vera Sans" font-size="8.00">num&#45;buffers=50</text>
<text text-anchor="middle" x="183" y="-906.6" font-family="Bitstream Vera Sans" font-size="8.00">do&#45;timestamp=TRUE</text>
<text text-anchor="middle" x="183" y="-897.6" font-family="Bitstream Vera Sans" font-size="8.00">filltype=random</text>
<text text-anchor="middle" x="183" y="-888.6" font-family="Bitstream Vera Sans" font-size="8.00">format=time</text>
</g>
<g id="clust22" class="cluster"><title>cluster_faksrc_0x16920e0_src</title>
</g>
<g id="clust23" class="cluster"><title>cluster_264encoder_0x168f310</title>
<path fill="#aaffaa" stroke="black" d="M152,-979C152,-979 472,-979 472,-979 478,-979 484,-985 484,-991 484,-991 484,-1123 484,-1123 484,-1129 478,-1135 472,-1135 472,-1135 152,-1135 152,-1135 146,-1135 140,-1129 140,-1123 140,-1123 140,-991 140,-991 140,-985 146,-979 152,-979"/>
<text text-anchor="middle" x="312" y="-1124.6" font-family="Bitstream Vera Sans" font-size="8.00">GstX264Enc</text>
<text text-anchor="middle" x="312" y="-1115.6" font-family="Bitstream Vera Sans" font-size="8.00">264encoder</text>
<text text-anchor="middle" x="312" y="-1106.6" font-family="Bitstream Vera Sans" font-size="8.00">[&gt;]</text>
<text text-anchor="middle" x="312" y="-1097.6" font-family="Bitstream Vera Sans" font-size="8.00">parent=(GstPipeline) my_pipeline</text>
</g>
<g id="clust24" class="cluster"><title>cluster_264encoder_0x168f310_sink</title>
</g>
<g id="clust25" class="cluster"><title>cluster_264encoder_0x168f310_src</title>
</g>
<g id="clust26" class="cluster"><title>cluster_mts_sink_0x1689c10</title>
<path fill="#aaaaff" stroke="black" d="M95,-1143C95,-1143 271,-1143 271,-1143 277,-1143 283,-1149 283,-1155 283,-1155 283,-1245 283,-1245 283,-1251 277,-1257 271,-1257 271,-1257 95,-1257 95,-1257 89,-1257 83,-1251 83,-1245 83,-1245 83,-1155 83,-1155 83,-1149 89,-1143 95,-1143"/>
<text text-anchor="middle" x="183" y="-1246.6" font-family="Bitstream Vera Sans" font-size="8.00">GstFileSink</text>
<text text-anchor="middle" x="183" y="-1237.6" font-family="Bitstream Vera Sans" font-size="8.00">mts_sink</text>
<text text-anchor="middle" x="183" y="-1228.6" font-family="Bitstream Vera Sans" font-size="8.00">[&#45;] &#45;&gt; [=]</text>
<text text-anchor="middle" x="183" y="-1219.6" font-family="Bitstream Vera Sans" font-size="8.00">parent=(GstPipeline) my_pipeline</text>
<text text-anchor="middle" x="183" y="-1210.6" font-family="Bitstream Vera Sans" font-size="8.00">sync=FALSE</text>
<text text-anchor="middle" x="183" y="-1201.6" font-family="Bitstream Vera Sans" font-size="8.00">location=&quot;/home/niaba/Documents/lol.mts&quot;</text>
</g>
<g id="clust27" class="cluster"><title>cluster_mts_sink_0x1689c10_sink</title>
</g>
<g id="clust28" class="cluster"><title>cluster_my_ts_muxer_0x167e000</title>
<path fill="#ffaaaa" stroke="black" d="M116,-1265C116,-1265 250,-1265 250,-1265 256,-1265 262,-1271 262,-1277 262,-1277 262,-1349 262,-1349 262,-1355 256,-1361 250,-1361 250,-1361 116,-1361 116,-1361 110,-1361 104,-1355 104,-1349 104,-1349 104,-1277 104,-1277 104,-1271 110,-1265 116,-1265"/>
<text text-anchor="middle" x="183" y="-1350.6" font-family="Bitstream Vera Sans" font-size="8.00">MpegTsMux</text>
<text text-anchor="middle" x="183" y="-1341.6" font-family="Bitstream Vera Sans" font-size="8.00">my_ts_muxer</text>
<text text-anchor="middle" x="183" y="-1332.6" font-family="Bitstream Vera Sans" font-size="8.00">[&gt;]</text>
<text text-anchor="middle" x="183" y="-1323.6" font-family="Bitstream Vera Sans" font-size="8.00">parent=(GstPipeline) my_pipeline</text>
</g>
<g id="clust29" class="cluster"><title>cluster_my_ts_muxer_0x167e000_src</title>
</g>
<g id="clust30" class="cluster"><title>cluster_videotest_0x16764b0</title>
<path fill="#ffaaaa" stroke="black" d="M116,-1369C116,-1369 250,-1369 250,-1369 256,-1369 262,-1375 262,-1381 262,-1381 262,-1462 262,-1462 262,-1468 256,-1474 250,-1474 250,-1474 116,-1474 116,-1474 110,-1474 104,-1468 104,-1462 104,-1462 104,-1381 104,-1381 104,-1375 110,-1369 116,-1369"/>
<text text-anchor="middle" x="183" y="-1463.6" font-family="Bitstream Vera Sans" font-size="8.00">GstVideoTestSrc</text>
<text text-anchor="middle" x="183" y="-1454.6" font-family="Bitstream Vera Sans" font-size="8.00">videotest</text>
<text text-anchor="middle" x="183" y="-1445.6" font-family="Bitstream Vera Sans" font-size="8.00">[&gt;]</text>
<text text-anchor="middle" x="183" y="-1436.6" font-family="Bitstream Vera Sans" font-size="8.00">parent=(GstPipeline) my_pipeline</text>
<text text-anchor="middle" x="183" y="-1427.6" font-family="Bitstream Vera Sans" font-size="8.00">num&#45;buffers=50</text>
</g>
<g id="clust31" class="cluster"><title>cluster_videotest_0x16764b0_src</title>
</g>
<g id="clust32" class="cluster"><title>cluster_my_ts_demuxer_0x16a8020</title>
<path fill="#aaaaff" stroke="black" d="M870,-188C870,-188 1004,-188 1004,-188 1010,-188 1016,-194 1016,-200 1016,-200 1016,-281 1016,-281 1016,-287 1010,-293 1004,-293 1004,-293 870,-293 870,-293 864,-293 858,-287 858,-281 858,-281 858,-200 858,-200 858,-194 864,-188 870,-188"/>
<text text-anchor="middle" x="937" y="-282.6" font-family="Bitstream Vera Sans" font-size="8.00">GstTSDemux</text>
<text text-anchor="middle" x="937" y="-273.6" font-family="Bitstream Vera Sans" font-size="8.00">my_ts_demuxer</text>
<text text-anchor="middle" x="937" y="-264.6" font-family="Bitstream Vera Sans" font-size="8.00">[&gt;]</text>
<text text-anchor="middle" x="937" y="-255.6" font-family="Bitstream Vera Sans" font-size="8.00">parent=(GstPipeline) my_pipeline</text>
<text text-anchor="middle" x="937" y="-246.6" font-family="Bitstream Vera Sans" font-size="8.00">parse&#45;private&#45;sections=TRUE</text>
</g>
<g id="clust33" class="cluster"><title>cluster_my_ts_demuxer_0x16a8020_sink</title>
</g>
<g id="clust34" class="cluster"><title>cluster_my_filesource_0x16a20d0</title>
<path fill="#ffaaaa" stroke="black" d="M95,-188C95,-188 271,-188 271,-188 277,-188 283,-194 283,-200 283,-200 283,-281 283,-281 283,-287 277,-293 271,-293 271,-293 95,-293 95,-293 89,-293 83,-287 83,-281 83,-281 83,-200 83,-200 83,-194 89,-188 95,-188"/>
<text text-anchor="middle" x="183" y="-282.6" font-family="Bitstream Vera Sans" font-size="8.00">GstFileSrc</text>
<text text-anchor="middle" x="183" y="-273.6" font-family="Bitstream Vera Sans" font-size="8.00">my_filesource</text>
<text text-anchor="middle" x="183" y="-264.6" font-family="Bitstream Vera Sans" font-size="8.00">[&gt;]</text>
<text text-anchor="middle" x="183" y="-255.6" font-family="Bitstream Vera Sans" font-size="8.00">parent=(GstPipeline) my_pipeline</text>
<text text-anchor="middle" x="183" y="-246.6" font-family="Bitstream Vera Sans" font-size="8.00">location=&quot;/home/niaba/Documents/lol.mts&quot;</text>
</g>
<g id="clust35" class="cluster"><title>cluster_my_filesource_0x16a20d0_src</title>
</g>
<!-- legend -->
<g id="node1" class="node"><title>legend</title>
<polygon fill="lightgrey" stroke="black" points="366,-58 0,-58 0,-3.55271e-15 366,-3.55271e-15 366,-58"/>
<text text-anchor="start" x="4" y="-46.8" font-family="sans" font-size="9.00">Legend</text>
<text text-anchor="start" x="4" y="-36.8" font-family="sans" font-size="9.00">Element&#45;States: [~] void&#45;pending, [0] null, [&#45;] ready, [=] paused, [&gt;] playing</text>
<text text-anchor="start" x="4" y="-26.8" font-family="sans" font-size="9.00">Pad&#45;Activation: [&#45;] none, [&gt;] push, [&lt;] pull</text>
<text text-anchor="start" x="4" y="-16.8" font-family="sans" font-size="9.00">Pad&#45;Flags: [b]locked, [f]lushing, [b]locking; upper&#45;case is set</text>
<text text-anchor="start" x="4" y="-6.8" font-family="sans" font-size="9.00">Pad&#45;Task: [T] has started task, [t] has paused task</text>
</g>
<!-- unknown_sink_0x17109f0_sink_0x16a4b80 -->
<g id="node2" class="node"><title>unknown_sink_0x17109f0_sink_0x16a4b80</title>
<polygon fill="#aaaaff" stroke="black" points="210,-102 156,-102 156,-82 210,-82 210,-102"/>
<text text-anchor="middle" x="183" y="-94.8" font-family="sans" font-size="9.00">sink</text>
<text text-anchor="middle" x="183" y="-84.8" font-family="sans" font-size="9.00">[&gt;][bfb]</text>
</g>
<!-- typefind3_0x16bf050_sink_0x16a4040 -->
<g id="node3" class="node"><title>typefind3_0x16bf050_sink_0x16a4040</title>
<polygon fill="#aaaaff" stroke="black" points="468,-224 414,-224 414,-204 468,-204 468,-224"/>
<text text-anchor="middle" x="441" y="-216.8" font-family="sans" font-size="9.00">sink</text>
<text text-anchor="middle" x="441" y="-206.8" font-family="sans" font-size="9.00">[&lt;][bfb]</text>
</g>
<!-- typefind3_0x16bf050_src_0x16a4280 -->
<g id="node4" class="node"><title>typefind3_0x16bf050_src_0x16a4280</title>
<polygon fill="#ffaaaa" stroke="black" points="563,-224 509,-224 509,-204 563,-204 563,-224"/>
<text text-anchor="middle" x="536" y="-216.8" font-family="sans" font-size="9.00">src</text>
<text text-anchor="middle" x="536" y="-206.8" font-family="sans" font-size="9.00">[&lt;][bfb]</text>
</g>
<!-- typefind3_0x16bf050_sink_0x16a4040&#45;&gt;typefind3_0x16bf050_src_0x16a4280 -->
<!-- my_ts_demuxer_0x16a8020_sink_0x167bdb0 -->
<g id="node5" class="node"><title>my_ts_demuxer_0x16a8020_sink_0x167bdb0</title>
<polygon fill="#aaaaff" stroke="black" points="964,-224 910,-224 910,-204 964,-204 964,-224"/>
<text text-anchor="middle" x="937" y="-216.8" font-family="sans" font-size="9.00">sink</text>
<text text-anchor="middle" x="937" y="-206.8" font-family="sans" font-size="9.00">[&lt;][bfb][t]</text>
</g>
<!-- typefind3_0x16bf050_src_0x16a4280&#45;&gt;my_ts_demuxer_0x16a8020_sink_0x167bdb0 -->
<g id="edge2" class="edge"><title>typefind3_0x16bf050_src_0x16a4280&#45;&gt;my_ts_demuxer_0x16a8020_sink_0x167bdb0</title>
<path fill="none" stroke="black" d="M563.18,-214C632.452,-214 820.657,-214 899.979,-214"/>
<polygon fill="black" stroke="black" points="899.984,-217.5 909.984,-214 899.984,-210.5 899.984,-217.5"/>
<text text-anchor="middle" x="718.5" y="-216.8" font-family="monospace" font-size="9.00"> &#160;&#160;&#160;&#160;&#160;&#160;&#160;&#160;&#160;&#160;&#160;&#160;&#160;&#160;&#160;&#160;&#160;&#160;&#160;&#160;&#160;&#160;&#160;&#160;&#160;&#160;&#160;&#160;&#160;&#160;&#160;&#160;&#160;&#160;&#160;&#160;&#160;&#160;&#160;&#160;&#160;&#160;&#160;&#160;&#160;&#160;&#160;&#160;&#160;</text>
<text text-anchor="start" x="760.984" y="-216.2" font-family="monospace" font-size="6.00">video/mpegts</text>
<text text-anchor="start" x="760.984" y="-209.2" font-family="monospace" font-size="6.00"> &#160;&#160;&#160;&#160;&#160;&#160;&#160;systemstream: true</text>
<text text-anchor="middle" x="663.18" y="-212.7" font-family="monospace" font-size="6.00">ANY</text>
</g>
<!-- queue4_0x169a9e0_sink_0x16a5240 -->
<g id="node6" class="node"><title>queue4_0x169a9e0_sink_0x16a5240</title>
<polygon fill="#aaaaff" stroke="black" points="210,-337 156,-337 156,-317 210,-317 210,-337"/>
<text text-anchor="middle" x="183" y="-329.8" font-family="sans" font-size="9.00">sink</text>
<text text-anchor="middle" x="183" y="-319.8" font-family="sans" font-size="9.00">[&gt;][bfb]</text>
</g>
<!-- queue4_0x169a9e0_src_0x16a5480 -->
<g id="node7" class="node"><title>queue4_0x169a9e0_src_0x16a5480</title>
<polygon fill="#ffaaaa" stroke="black" points="468,-337 414,-337 414,-317 468,-317 468,-337"/>
<text text-anchor="middle" x="441" y="-329.8" font-family="sans" font-size="9.00">src</text>
<text text-anchor="middle" x="441" y="-319.8" font-family="sans" font-size="9.00">[&gt;][bfb][T]</text>
</g>
<!-- queue4_0x169a9e0_sink_0x16a5240&#45;&gt;queue4_0x169a9e0_src_0x16a5480 -->
<!-- queue3_0x169a6f0_sink_0x16a4dc0 -->
<g id="node8" class="node"><title>queue3_0x169a6f0_sink_0x16a4dc0</title>
<polygon fill="#aaaaff" stroke="black" points="210,-441 156,-441 156,-421 210,-421 210,-441"/>
<text text-anchor="middle" x="183" y="-433.8" font-family="sans" font-size="9.00">sink</text>
<text text-anchor="middle" x="183" y="-423.8" font-family="sans" font-size="9.00">[&gt;][bfb]</text>
</g>
<!-- queue3_0x169a6f0_src_0x16a5000 -->
<g id="node9" class="node"><title>queue3_0x169a6f0_src_0x16a5000</title>
<polygon fill="#ffaaaa" stroke="black" points="468,-441 414,-441 414,-421 468,-421 468,-441"/>
<text text-anchor="middle" x="441" y="-433.8" font-family="sans" font-size="9.00">src</text>
<text text-anchor="middle" x="441" y="-423.8" font-family="sans" font-size="9.00">[&gt;][bfb][T]</text>
</g>
<!-- queue3_0x169a6f0_sink_0x16a4dc0&#45;&gt;queue3_0x169a6f0_src_0x16a5000 -->
<!-- queue2_0x169a400_sink_0x167b6f0 -->
<g id="node10" class="node"><title>queue2_0x169a400_sink_0x167b6f0</title>
<polygon fill="#aaaaff" stroke="black" points="210,-545 156,-545 156,-525 210,-525 210,-545"/>
<text text-anchor="middle" x="183" y="-537.8" font-family="sans" font-size="9.00">sink</text>
<text text-anchor="middle" x="183" y="-527.8" font-family="sans" font-size="9.00">[&gt;][bfb]</text>
</g>
<!-- queue2_0x169a400_src_0x167b930 -->
<g id="node11" class="node"><title>queue2_0x169a400_src_0x167b930</title>
<polygon fill="#ffaaaa" stroke="black" points="468,-545 414,-545 414,-525 468,-525 468,-545"/>
<text text-anchor="middle" x="441" y="-537.8" font-family="sans" font-size="9.00">src</text>
<text text-anchor="middle" x="441" y="-527.8" font-family="sans" font-size="9.00">[&gt;][bfb][T]</text>
</g>
<!-- queue2_0x169a400_sink_0x167b6f0&#45;&gt;queue2_0x169a400_src_0x167b930 -->
<!-- queue1_0x169a110_sink_0x167b270 -->
<g id="node12" class="node"><title>queue1_0x169a110_sink_0x167b270</title>
<polygon fill="#aaaaff" stroke="black" points="210,-649 156,-649 156,-629 210,-629 210,-649"/>
<text text-anchor="middle" x="183" y="-641.8" font-family="sans" font-size="9.00">sink</text>
<text text-anchor="middle" x="183" y="-631.8" font-family="sans" font-size="9.00">[&gt;][bfb]</text>
</g>
<!-- queue1_0x169a110_src_0x167b4b0 -->
<g id="node13" class="node"><title>queue1_0x169a110_src_0x167b4b0</title>
<polygon fill="#ffaaaa" stroke="black" points="468,-649 414,-649 414,-629 468,-629 468,-649"/>
<text text-anchor="middle" x="441" y="-641.8" font-family="sans" font-size="9.00">src</text>
<text text-anchor="middle" x="441" y="-631.8" font-family="sans" font-size="9.00">[&gt;][bfb][T]</text>
</g>
<!-- queue1_0x169a110_sink_0x167b270&#45;&gt;queue1_0x169a110_src_0x167b4b0 -->
<!-- identity_0x1698130_sink_0x167adf0 -->
<g id="node14" class="node"><title>identity_0x1698130_sink_0x167adf0</title>
<polygon fill="#aaaaff" stroke="black" points="210,-753 156,-753 156,-733 210,-733 210,-753"/>
<text text-anchor="middle" x="183" y="-745.8" font-family="sans" font-size="9.00">sink</text>
<text text-anchor="middle" x="183" y="-735.8" font-family="sans" font-size="9.00">[&gt;][bfb]</text>
</g>
<!-- identity_0x1698130_src_0x167b030 -->
<g id="node15" class="node"><title>identity_0x1698130_src_0x167b030</title>
<polygon fill="#ffaaaa" stroke="black" points="468,-753 414,-753 414,-733 468,-733 468,-753"/>
<text text-anchor="middle" x="441" y="-745.8" font-family="sans" font-size="9.00">src</text>
<text text-anchor="middle" x="441" y="-735.8" font-family="sans" font-size="9.00">[&gt;][bfb]</text>
</g>
<!-- identity_0x1698130_sink_0x167adf0&#45;&gt;identity_0x1698130_src_0x167b030 -->
<!-- faksrc_0x16920e0_src_0x167abb0 -->
<g id="node16" class="node"><title>faksrc_0x16920e0_src_0x167abb0</title>
<polygon fill="#ffaaaa" stroke="black" points="210,-866 156,-866 156,-846 210,-846 210,-866"/>
<text text-anchor="middle" x="183" y="-858.8" font-family="sans" font-size="9.00">src</text>
<text text-anchor="middle" x="183" y="-848.8" font-family="sans" font-size="9.00">[&gt;][bfb][t]</text>
</g>
<!-- 264 -->
<g id="node17" class="node"><title>264</title>
<path fill="lightgrey" stroke="black" d="M456,-1075C456,-1075 426,-1075 426,-1075 420,-1075 414,-1069 414,-1063 414,-1063 414,-1051 414,-1051 414,-1045 420,-1039 426,-1039 426,-1039 456,-1039 456,-1039 462,-1039 468,-1045 468,-1051 468,-1051 468,-1063 468,-1063 468,-1069 462,-1075 456,-1075"/>
<text text-anchor="middle" x="441" y="-1054.8" font-family="sans" font-size="9.00">264</text>
</g>
<!-- encoder_0x168f310_sink_0x167a730 -->
<g id="node18" class="node"><title>encoder_0x168f310_sink_0x167a730</title>
<polygon fill="#aaaaff" stroke="black" points="210,-1067 156,-1067 156,-1047 210,-1047 210,-1067"/>
<text text-anchor="middle" x="183" y="-1059.8" font-family="sans" font-size="9.00">sink</text>
<text text-anchor="middle" x="183" y="-1049.8" font-family="sans" font-size="9.00">[&gt;][bfb]</text>
</g>
<!-- encoder_0x168f310_sink_0x167a730&#45;&gt;264 -->
<g id="edge8" class="edge"><title>encoder_0x168f310_sink_0x167a730&#45;&gt;264</title>
<path fill="none" stroke="black" d="M210.432,-1057C256.446,-1057 351.331,-1057 403.555,-1057"/>
<polygon fill="black" stroke="black" points="403.712,-1060.5 413.712,-1057 403.711,-1053.5 403.712,-1060.5"/>
</g>
<!-- encoder_0x168f310_src_0x167a970 -->
<!-- mts_sink_0x1689c10_sink_0x167a4f0 -->
<g id="node20" class="node"><title>mts_sink_0x1689c10_sink_0x167a4f0</title>
<polygon fill="#aaaaff" stroke="black" points="210,-1179 156,-1179 156,-1159 210,-1159 210,-1179"/>
<text text-anchor="middle" x="183" y="-1171.8" font-family="sans" font-size="9.00">sink</text>
<text text-anchor="middle" x="183" y="-1161.8" font-family="sans" font-size="9.00">[&gt;][bfb]</text>
</g>
<!-- my_ts_muxer_0x167e000_src_0x167a2b0 -->
<g id="node21" class="node"><title>my_ts_muxer_0x167e000_src_0x167a2b0</title>
<polygon fill="#ffaaaa" stroke="black" points="210,-1301 156,-1301 156,-1281 210,-1281 210,-1301"/>
<text text-anchor="middle" x="183" y="-1293.8" font-family="sans" font-size="9.00">src</text>
<text text-anchor="middle" x="183" y="-1283.8" font-family="sans" font-size="9.00">[&gt;][bfb]</text>
</g>
<!-- videotest_0x16764b0_src_0x167a070 -->
<g id="node22" class="node"><title>videotest_0x16764b0_src_0x167a070</title>
<polygon fill="#ffaaaa" stroke="black" points="210,-1405 156,-1405 156,-1385 210,-1385 210,-1405"/>
<text text-anchor="middle" x="183" y="-1397.8" font-family="sans" font-size="9.00">src</text>
<text text-anchor="middle" x="183" y="-1387.8" font-family="sans" font-size="9.00">[&gt;][bfb][t]</text>
</g>
<!-- my_filesource_0x16a20d0_src_0x167bb70 -->
<g id="node23" class="node"><title>my_filesource_0x16a20d0_src_0x167bb70</title>
<polygon fill="#ffaaaa" stroke="black" points="210,-224 156,-224 156,-204 210,-204 210,-224"/>
<text text-anchor="middle" x="183" y="-216.8" font-family="sans" font-size="9.00">src</text>
<text text-anchor="middle" x="183" y="-206.8" font-family="sans" font-size="9.00">[&lt;][bfb]</text>
</g>
<!-- my_filesource_0x16a20d0_src_0x167bb70&#45;&gt;typefind3_0x16bf050_sink_0x16a4040 -->
<g id="edge9" class="edge"><title>my_filesource_0x16a20d0_src_0x167bb70&#45;&gt;typefind3_0x16bf050_sink_0x16a4040</title>
<path fill="none" stroke="black" d="M210.432,-214C256.446,-214 351.331,-214 403.555,-214"/>
<polygon fill="black" stroke="black" points="403.712,-217.5 413.712,-214 403.711,-210.5 403.712,-217.5"/>
<text text-anchor="middle" x="382" y="-216.8" font-family="monospace" font-size="9.00">ANY</text>
</g>
</g>
</svg>
